<?xml version="1.0" encoding="iso-8859-1"?>
<!-- Generator: Adobe Illustrator 19.0.0, SVG Export Plug-In . SVG Version: 6.00 Build 0)  -->
<svg version="1.1" id="Layer_1" xmlns="http://www.w3.org/2000/svg" xmlns:xlink="http://www.w3.org/1999/xlink" x="0px" y="0px"
	 viewBox="0 0 390.206 390.206" style="enable-background:new 0 0 390.206 390.206;" xml:space="preserve">
<path style="fill:#FFC10D;" d="M368.549,242.812c0,5.947-4.849,10.861-10.861,10.861H196.202l-6.529-3.232v-9.244
	c10.861-14.093,17.907-33.616,19.523-56.372h1.099c5.947,0,10.861-4.848,10.861-10.861c0-7.046-2.715-13.576-7.046-18.941v-32
	c0-14.093-8.145-26.57-21.139-32l-37.947-16.808c-5.947-2.715-12.994-3.814-19.523-3.814V32.453c0-5.947,4.848-10.861,10.861-10.861
	h59.087v44.412c0,4.331,2.715,8.663,7.046,10.279l18.424,7.564c2.715,1.099,5.43,1.099,8.145,0l26.57-10.861l19.523,3.814
	c7.046,1.099,12.994-3.814,12.994-10.861V21.527h59.087c5.947,0,10.861,4.848,10.861,10.861v210.295h0.453V242.812z"/>
<path style="fill:#FFFFFF;" d="M136.598,246.044c33.616,0,48.226-30.901,51.459-61.22h-102.4
	C89.406,220.057,110.028,246.044,136.598,246.044z"/>
<g>
	<path style="fill:#56ACE0;" d="M145.778,354.974c-4.331,5.947-13.576,6.529-17.907,0l-51.459-75.895l-54.756,30.319v59.087h230.335
		v-59.087l-54.756-30.319L145.778,354.974z"/>
	<path style="fill:#56ACE0;" d="M82.36,163.103h109.511c-9.762-7.564-29.285-14.093-54.756-14.093
		C112.162,149.01,92.703,155.539,82.36,163.103z"/>
</g>
<path style="fill:#FFFFFF;" d="M178.295,268.283l-4.331-2.198c-2.715-1.616-4.331-3.814-5.43-6.529
	c-9.244,5.43-20.04,8.145-32,8.145c-11.378,0-22.238-3.232-32-8.663c-0.517,3.232-2.715,5.947-5.43,7.564l-3.814,1.616l41.18,61.22
	L178.295,268.283z"/>
<g>
	<path style="fill:#194F82;" d="M288.84,228.719c-5.947,0-10.861-4.848-10.861-10.861v-21.657c0-5.947,4.848-10.861,10.861-10.861
		c5.947,0,10.861,4.848,10.861,10.861v21.657C299.701,223.806,294.853,228.719,288.84,228.719z"/>
	<path style="fill:#194F82;" d="M324.655,228.719c-5.947,0-10.861-4.848-10.861-10.861v-21.657c0-5.947,4.848-10.861,10.861-10.861
		c5.947,0,10.861,4.848,10.861,10.861v21.657C335.451,223.806,330.602,228.719,324.655,228.719z"/>
</g>
<path style="fill:#56ACE0;" d="M193.487,123.022v15.192c-14.61-7.046-33.616-10.861-55.273-10.861s-41.18,4.331-55.79,11.378
	l-1.099,0.646v-16.356c0-5.43,3.232-9.762,8.145-11.96l37.947-16.808c6.529-2.715,13.511-2.715,20.04,0l37.947,16.808
	C190.255,113.261,193.487,118.174,193.487,123.022z"/>
<path style="fill:#194F82;" d="M357.689,0H147.394c-17.907,0-32.517,14.61-32.517,32.517v43.378L80.743,91.022
	c-12.477,5.43-21.139,17.907-21.139,32v32.517c-4.331,5.43-6.529,11.895-6.529,18.424c0,5.947,4.913,10.861,10.279,10.861
	c2.133,21.139,8.663,40.081,19.523,54.174v11.378l-72.016,40.081C4.331,294.271,0,301.317,0,308.881v70.465
	c0,5.947,4.848,10.861,10.861,10.861h251.475c5.947,0,10.861-4.848,10.861-10.861v-70.465c0-7.564-4.331-14.61-10.861-18.424
	l-27.152-15.127h122.505c17.907,0,32.517-14.61,32.517-32.517V32.517C390.206,14.61,375.596,0,357.689,0z M228.137,21.657h48.808
	v30.901l-9.762-2.198c-2.133-0.517-4.331,0-6.529,0.517l-24.954,10.861l-7.564-3.232L228.137,21.657L228.137,21.657z
	 M81.325,123.022c0-5.43,3.232-9.762,8.145-11.96l37.947-16.808c6.529-2.715,13.511-2.715,20.04,0l37.947,16.808
	c4.848,2.198,8.145,7.046,8.145,11.96v15.192c-14.61-7.046-33.616-10.861-55.273-10.861s-41.18,4.331-55.79,11.378l-1.099,0.646
	v-16.356H81.325z M82.36,163.103c9.762-7.564,29.285-14.093,54.756-14.093s44.994,6.529,54.756,14.093H82.36z M136.598,246.044
	c-26.57,0-47.127-25.471-50.941-61.22h102.4C185.341,215.143,170.731,246.044,136.598,246.044z M178.295,267.701l-41.18,61.22
	l-41.762-60.703l3.814-2.198c2.715-1.616,4.848-4.331,5.43-7.564c9.762,5.947,20.622,8.663,32,8.663c11.895,0,22.756-2.715,32-8.145
	c0.517,2.715,2.715,5.43,5.43,6.529L178.295,267.701z M251.992,309.463v59.087H21.657v-59.087l54.756-30.319l51.459,75.83
	c4.913,6.529,13.576,5.947,17.907,0l51.459-75.83L251.992,309.463z M357.689,253.608H196.202l-6.529-3.232v-9.244
	c10.861-14.093,17.907-33.616,19.523-56.372h1.099c5.947,0,10.861-4.848,10.861-10.861c0-7.046-2.715-13.576-7.046-18.941v-32
	c0-14.093-8.145-26.57-21.139-32l-37.947-16.743c-5.947-2.715-12.994-3.814-19.523-3.814V32.453c0-5.947,4.848-10.861,10.861-10.861
	h59.087v44.412c0,4.331,2.715,8.663,7.046,10.279l18.424,7.564c2.715,1.099,5.43,1.099,8.145,0l26.57-10.861l19.523,3.814
	c7.046,1.099,12.994-3.814,12.994-10.861V21.527h59.087c5.947,0,10.861,4.848,10.861,10.861v210.295h0.517
	C368.549,248.76,363.636,253.608,357.689,253.608z"/>
<g>
</g>
<g>
</g>
<g>
</g>
<g>
</g>
<g>
</g>
<g>
</g>
<g>
</g>
<g>
</g>
<g>
</g>
<g>
</g>
<g>
</g>
<g>
</g>
<g>
</g>
<g>
</g>
<g>
</g>
</svg>
